<svg version="1.1" viewBox="0.0 0.0 140.00787401574803 141.21784776902888" fill="none" stroke="none" stroke-linecap="square" stroke-miterlimit="10" xmlns:xlink="http://www.w3.org/1999/xlink" xmlns="http://www.w3.org/2000/svg"><clipPath id="p.0"><path d="m0 0l140.00787 0l0 141.21785l-140.00787 0l0 -141.21785z" clip-rule="nonzero"/></clipPath><g clip-path="url(#p.0)"><path fill="#000000" fill-opacity="0.0" d="m0 0l140.00787 0l0 141.21785l-140.00787 0z" fill-rule="evenodd"/><path fill="#ffffff" d="m0.2887139 70.28871l0 0c0 -38.659927 31.340069 -70.0 70.0 -70.0l0 0c18.565155 0 36.369934 7.374979 49.497475 20.502525c13.127556 13.127546 20.502525 30.932322 20.502525 49.497475l0 0c0 38.659935 -31.340065 70.0 -70.0 70.0l0 0c-38.659927 0 -70.0 -31.340065 -70.0 -70.0z" fill-rule="evenodd"/><path fill="#000000" fill-opacity="0.0" d="m8.6587925 59.201626l60.394608 71.197174l60.90412 -69.5354" fill-rule="evenodd"/><path stroke="#000000" stroke-width="8.0" stroke-linejoin="round" stroke-linecap="butt" d="m8.6587925 59.201626l60.394608 71.197174l60.90412 -69.5354" fill-rule="evenodd"/></g></svg>